<?xml version="1.0" standalone="no"?>
<!DOCTYPE svg PUBLIC "-//W3C//DTD SVG 20010904//EN"
 "http://www.w3.org/TR/2001/REC-SVG-20010904/DTD/svg10.dtd">
<svg version="1.0" xmlns="http://www.w3.org/2000/svg"
 width="700.000000pt" height="700.000000pt" viewBox="0 0 700.000000 700.000000"
 preserveAspectRatio="xMidYMid meet">
<metadata>
Created by potrace 1.11, written by Peter Selinger 2001-2013
</metadata>
<g transform="translate(0.000000,700.000000) scale(0.100000,-0.100000)"
fill="#000000" stroke="none">
<path d="M874 6474 c-56 -20 -117 -74 -136 -121 -9 -21 -24 -83 -34 -138 -10
-55 -19 -104 -20 -110 -5 -21 -14 -68 -53 -270 -22 -115 -43 -221 -46 -235 -3
-14 -8 -41 -11 -60 -4 -19 -8 -42 -9 -50 -2 -8 -17 -85 -33 -170 -40 -201 -40
-201 -57 -295 -8 -44 -21 -113 -29 -152 -9 -40 -18 -87 -21 -105 -3 -18 -14
-76 -25 -128 -10 -52 -30 -153 -44 -225 -14 -71 -28 -142 -31 -157 -3 -16 -7
-40 -10 -55 -3 -16 -30 -156 -61 -313 -30 -157 -59 -304 -64 -327 -5 -22 -12
-58 -16 -78 -3 -21 -8 -47 -10 -59 -2 -11 -7 -34 -10 -51 -3 -16 -11 -61 -19
-100 -8 -38 -17 -83 -19 -100 -3 -16 -17 -86 -32 -155 -35 -171 -40 -239 -20
-278 21 -40 60 -78 111 -105 37 -20 56 -22 275 -25 198 -3 239 -6 262 -20 255
-157 304 -185 548 -307 500 -251 1121 -445 1640 -510 8 -1 40 -5 70 -9 114
-15 304 -29 388 -30 l52 0 0 -156 0 -155 -522 0 c-288 1 -535 -3 -550 -8 -15
-5 -34 -20 -44 -35 -15 -23 -17 -64 -17 -413 0 -348 2 -391 17 -414 9 -14 28
-30 42 -35 16 -6 498 -10 1255 -10 1344 0 1277 -3 1299 56 14 36 13 776 -1
807 -24 52 -13 51 -596 52 -298 0 -545 3 -549 7 -4 5 -7 73 -7 152 1 126 -2
146 -16 149 -9 3 16 6 54 7 39 1 79 3 90 5 11 2 49 5 85 8 90 8 306 40 385 57
22 5 56 12 75 15 49 9 220 52 315 80 445 133 876 339 1253 599 57 39 115 79
131 88 24 16 62 18 335 18 356 1 378 5 453 85 47 51 60 100 44 161 -5 22 -12
50 -15 64 -3 14 -23 99 -46 190 -23 91 -43 172 -45 180 -2 8 -13 53 -24 100
-12 47 -23 94 -25 105 -6 27 -116 473 -161 655 -20 80 -38 154 -41 165 -2 11
-22 94 -45 185 -22 91 -45 183 -50 205 -13 63 -13 62 -109 450 -51 204 -93
377 -95 385 -2 8 -33 137 -70 285 -36 149 -68 278 -71 288 -2 9 -6 25 -8 35
-2 9 -9 35 -14 57 -6 22 -16 66 -22 98 -14 72 -62 129 -135 163 l-50 24 -2500
-1 c-2166 0 -2505 -2 -2541 -15z m4921 -236 c3 -3 7 -14 9 -24 3 -11 84 -336
181 -724 97 -388 194 -775 215 -860 21 -85 82 -328 135 -540 53 -212 98 -392
101 -400 27 -110 36 -147 39 -160 2 -8 40 -159 84 -335 45 -176 81 -324 81
-330 0 -7 -1052 -10 -3137 -9 l-3138 0 1 30 c0 16 4 45 8 64 38 189 109 550
113 570 2 14 13 68 23 120 10 52 21 106 24 120 2 14 47 242 100 508 53 266 99
500 102 520 3 20 8 40 10 43 2 3 6 21 9 40 5 31 37 196 50 259 3 14 10 50 16
80 6 30 37 188 69 350 33 162 61 306 64 320 2 14 19 100 38 192 29 146 35 168
53 170 39 6 4744 2 4750 -4z m10 -3637 c-46 -44 -490 -285 -645 -350 -324
-137 -684 -244 -965 -286 -22 -3 -67 -10 -100 -15 -182 -27 -311 -35 -585 -35
-140 0 -291 4 -335 8 -251 24 -512 66 -675 107 -41 10 -89 21 -106 24 -49 9
-326 93 -454 138 -127 44 -332 127 -455 183 -164 75 -445 221 -445 231 0 2
1074 4 2387 4 1426 0 2383 -4 2378 -9z"/>
<path d="M1279 5992 c-22 -3 -29 -11 -39 -50 -7 -26 -26 -92 -42 -147 -77
-265 -165 -581 -162 -585 1 -3 321 -5 711 -5 l708 0 0 394 0 394 -575 1 c-316
1 -587 0 -601 -2z"/>
<path d="M2800 5992 c-6 -2 -10 -143 -10 -395 l0 -392 715 0 715 0 0 50 c3
272 0 728 -4 733 -6 6 -1399 9 -1416 4z"/>
<path d="M4538 5990 c-4 -16 -4 -780 1 -781 30 -7 1331 -2 1331 4 0 5 -42 158
-94 341 -52 182 -100 352 -107 379 -6 26 -16 50 -22 54 -12 7 -1106 10 -1109
3z"/>
<path d="M1037 4943 c-5 -9 -97 -327 -102 -354 -2 -10 -15 -57 -29 -105 -14
-49 -41 -142 -60 -207 l-34 -117 826 2 827 3 1 393 0 392 -712 0 c-392 0 -715
-3 -717 -7z"/>
<path d="M2790 4555 l0 -395 718 0 717 0 0 393 0 392 -718 3 -717 2 0 -395z"/>
<path d="M4540 4555 l0 -395 780 0 c429 0 780 3 780 6 0 4 -46 167 -101 363
-56 196 -106 371 -111 389 l-9 32 -669 0 -670 0 0 -395z"/>
<path d="M845 3845 c-179 -615 -211 -735 -196 -736 21 -1 1758 -1 1792 0 l25
1 0 390 c0 271 -3 390 -10 391 -6 0 -368 1 -804 2 l-793 2 -14 -50z"/>
<path d="M2807 3892 c-16 -3 -17 -34 -15 -395 l3 -392 713 0 c391 0 713 2 713
5 1 3 2 179 3 393 l1 387 -25 1 c-82 3 -1379 3 -1393 1z"/>
<path d="M4568 3892 l-28 -3 0 -390 c0 -304 3 -389 13 -390 16 -1 1749 -1
1763 0 8 1 -200 764 -213 780 -3 5 -1495 7 -1535 3z"/>
</g>
</svg>
