<?xml version="1.0" encoding="UTF-8"?>
<svg enable-background="new 0 0 60 60" version="1.1" viewBox="0 0 60 60" xml:space="preserve" xmlns="http://www.w3.org/2000/svg">
	<path d="M50.586,0H9.414C7.807,0,6.5,1.308,6.5,2.914v54.172C6.5,58.692,7.807,60,9.414,60h41.172c1.607,0,2.914-1.308,2.914-2.914   V2.914C53.5,1.308,52.193,0,50.586,0z M51.5,57.086C51.5,57.59,51.09,58,50.586,58H9.414C8.91,58,8.5,57.59,8.5,57.086V2.914   C8.5,2.41,8.91,2,9.414,2h41.172C51.09,2,51.5,2.41,51.5,2.914V57.086z"/>
	<path d="m11.5 55h11v-11h-11v11zm2-9h7v7h-7v-7z"/>
	<path d="m24.5 55h11v-11h-11v11zm2-9h7v7h-7v-7z"/>
	<path d="m37.5 55h11v-24h-11v24zm2-22h7v20h-7v-20z"/>
	<path d="m11.5 42h11v-11h-11v11zm2-9h7v7h-7v-7z"/>
	<path d="m24.5 42h11v-11h-11v11zm2-9h7v7h-7v-7z"/>
	<path d="m11.5 29h11v-11h-11v11zm2-9h7v7h-7v-7z"/>
	<path d="m24.5 29h11v-11h-11v11zm2-9h7v7h-7v-7z"/>
	<path d="m37.5 29h11v-11h-11v11zm2-9h7v7h-7v-7z"/>
	<path d="m11.5 15h37v-10h-37v10zm2-8h33v6h-33v-6z"/>
</svg>

