<?xml version="1.0" encoding="UTF-8"?>
<svg enable-background="new 0 0 512 512" version="1.1" viewBox="0 0 512 512" xml:space="preserve" xmlns="http://www.w3.org/2000/svg">
			<path d="m440 123h-440v266h512v-266h-72zm52 197c-25.333 7.333-41.667 23.667-49 49h-374c-7.333-25.333-23.667-41.667-49-49v-128c25.333-7.334 41.667-23.667 49-49h374c7.334 24.667 23.668 41 49 49v128z"/>
			<path d="m256 154c-25.333 0-47 10-65 30s-27 44-27 72 9 52 27 72 39.667 30 65 30 47-10 65-30 27-44 27-72-9-52-27-72-39.667-30-65-30zm39 160c-6 5.333-15.667 9-29 11v13h-20v-13c-12.667-2-21.667-5-27-9-9.333-7.333-14-17-14-29h25c0.667 0 1.167 0.667 1.5 2s0.833 3 1.5 5c0.668 2 1.334 3.333 2 4 1.333 1.334 5 2.667 11 4v-34c-12.667-3.333-21.333-6.667-26-10-8.667-6-13-15-13-27s4.333-21.667 13-29c6-6 14.667-9.667 26-11v-17h20v18c7.333 1.333 15.333 5 24 11 4 2.667 6.833 5 8.5 7s3.333 5.167 5 9.5 2.833 9.833 3.5 16.5h-26c-0.667-8.668-4.667-14.668-12-18l-3-2v32l9 1c12 3.334 20 6.668 24 10 7.333 5.333 11 14 11 26 0 11.333-5 21-15 29z"/>
			<path d="m278 277c-4-2-8-3.333-12-4v30l2.5-0.5c1.667-0.333 2.833-0.5 3.5-0.5 7.333-2.667 11-7.667 11-15 0-4-1.667-7.333-5-10z"/>
			<path d="m232 229c0 4 2 7.333 6 10 1.333 0.667 4 1.667 8 3v-28c-3.333 0.667-6 1.667-8 3-4 2.667-6 6.667-6 12z"/>		
</svg>
