<?xml version="1.0" encoding="UTF-8"?>
<svg enable-background="new 0 0 512 512" version="1.1" viewBox="0 0 512 512" xml:space="preserve" xmlns="http://www.w3.org/2000/svg">
<path d="m373.76 7.119c-2.739-4.424-7.558-7.119-12.759-7.119h-90c-6.006 0-11.426 3.574-13.784 9.097l-90 211c-1.992 4.629-1.509 9.946 1.26 14.165 2.783 4.204 7.485 6.738 12.524 6.738h39.185l-83.408 251.25c-2.432 7.266 1.011 15.176 7.954 18.369 2.021 0.938 4.16 1.377 6.255 1.377 5.127 0 10.093-2.637 12.876-7.28l180-301c2.783-4.644 2.856-10.415 0.19-15.117s-7.646-7.603-13.052-7.603h-35.728l79.146-159.29c2.329-4.644 2.08-10.166-0.659-14.59z"/>
</svg>
