<?xml version="1.0" encoding="UTF-8"?>
<svg enable-background="new 0 0 410.56 51.92" version="1.1" viewBox="0 0 410.56 51.92" xml:space="preserve" xmlns="http://www.w3.org/2000/svg">
		<path class="st0" d="m112.2 13.61c0 6.19-3.46 9.36-7.2 11.3 5.9 2.02 10.01 5.4 10.01 12.31 0 9.07-7.42 13.9-18.65 13.9h-23.34v-50.4h22.61c10.16 0 16.57 4.97 16.57 12.89zm-8.86 1.44c0-4.1-3.17-6.48-8.86-6.48h-12.74v13.39h12.1c5.68 0 9.5-2.23 9.5-6.91zm2.81 21.24c0-4.32-3.38-6.84-10.37-6.84h-14.04v13.83h14.69c6.04 0 9.72-2.38 9.72-6.99z"/>
		<path class="st0" d="M125.01,0.72h8.86v42.34h26.5v8.06h-35.35V0.72z"/>
		<path class="st0" d="m210.47 29.31c0 15.05-8.5 22.61-21.67 22.61-13.11 0-21.46-7.56-21.46-22.18v-29.02h8.86v28.66c0 9.36 4.82 14.4 12.75 14.4 7.85 0 12.67-4.75 12.67-14.04v-29.02h8.86v28.59z"/>
		<path class="st0" d="M260.01,8.64h-28.51v13.11h25.27v7.92h-25.27V43.2h28.88v7.92h-37.73V0.72h37.37V8.64z"/>
		<path class="st0" d="m290.32 21.89c10.66 2.59 16.2 6.41 16.2 14.83 0 9.5-7.42 15.12-18 15.12-7.71 0-14.98-2.66-21.03-8.06l5.33-6.34c4.82 4.18 9.65 6.55 15.91 6.55 5.47 0 8.93-2.52 8.93-6.41 0-3.67-2.02-5.62-11.38-7.78-10.73-2.59-16.78-5.76-16.78-15.12 0-8.78 7.2-14.69 17.21-14.69 7.34 0 13.18 2.23 18.29 6.34l-4.75 6.7c-4.54-3.38-9.07-5.18-13.68-5.18-5.18 0-8.21 2.66-8.21 6.05 0.01 3.96 2.31 5.69 11.96 7.99z"/>
		<path class="st0" d="m361.6 51.12h-10.73l-17.21-22.68-7.85 8.06v14.62h-8.86v-50.4h8.86v25.35l23.98-25.35h10.87l-20.95 21.67 21.89 28.73z"/>
		<path class="st0" d="M390.54,51.12h-8.93V31.25L361.6,0.72h10.44l14.11,22.32l14.26-22.32h10.15l-20.02,30.31V51.12z"/>
				<path class="st0" d="m51.08 2.48c0-0.96-0.97-1.74-2.16-1.74h-41.1c-1.19 0-2.16 0.78-2.16 1.74l-5.66 29.25c0 0.96 0.97 1.74 2.16 1.74h3.27c1.52 1.05 11.29 7.41 23.88 7.41 6.8 0 14.42-1.86 22-7.41h4.77c1.19 0 2.16-0.78 2.16-1.74l-7.16-29.25zm-42.81 30.99h40.41c-17.33 11.35-34.5 3.43-40.41 0zm-5.67-2.09l5.65-28.56h40.24l7.16 28.56h-53.05z"/>
				<polygon class="st0" points="20.36 4.93 10.18 4.93 8.3 11.58 20.36 11.58"/>
				<rect class="st0" x="23.12" y="4.93" width="12.07" height="6.66"/>
				<polygon class="st0" points="37.83 4.93 37.83 11.58 49.14 11.58 47.26 4.93"/>
				<polygon class="st0" points="6.46 20.4 20.41 20.4 20.41 13.74 8.35 13.74"/>
				<rect class="st0" x="23.16" y="13.74" width="12.07" height="6.66"/>
				<polygon class="st0" points="37.89 20.4 51.08 20.4 49.19 13.74 37.89 13.74"/>
				<polygon class="st0" points="4.95 29.28 20.41 29.28 20.41 22.63 6.84 22.63"/>
				<rect class="st0" x="23.16" y="22.63" width="12.07" height="6.66"/>
				<polygon class="st0" points="37.89 22.63 37.89 29.28 52.96 29.28 51.08 22.63"/>
				<path class="st0" d="m28.38 43.47h-8.81c-0.42 0-0.75 0.34-0.75 0.75v6.2c0 0.42 0.34 0.75 0.75 0.75h20.62c0.42 0 0.75-0.34 0.75-0.75v-6.2c0-0.42-0.34-0.75-0.75-0.75h-9.05v-2.59h-2.76v2.59z"/>
</svg>
