<?xml version="1.0" encoding="utf-8"?>
<!-- Generator: Adobe Illustrator 23.0.1, SVG Export Plug-In . SVG Version: 6.00 Build 0)  -->
<svg version="1.1" id="Layer_1" xmlns="http://www.w3.org/2000/svg" xmlns:xlink="http://www.w3.org/1999/xlink" x="0px" y="0px"
	 viewBox="0 0 260 260" style="enable-background:new 0 0 260 260;" xml:space="preserve">
<style type="text/css">
	.st0{fill:#387CDF;}
</style>
<g>
	<path class="st0" d="M226.7,26.6c0-4.2-4.3-7.7-9.5-7.7h-181c-5.2,0-9.5,3.4-9.5,7.7L1.7,155.4c0,4.2,4.3,7.7,9.5,7.7h14.4
		c6.7,4.6,49.7,32.6,105.2,32.6c29.9,0,63.5-8.2,96.9-32.6h21c5.2,0,9.5-3.4,9.5-7.7C258.3,155.4,226.7,26.6,226.7,26.6z
		 M38.2,163.1h178C139.8,213.1,64.2,178.2,38.2,163.1z M13.2,153.9L38.1,28.1h177.2l31.5,125.8C246.8,153.9,13.2,153.9,13.2,153.9z"
		/>
	<polygon class="st0" points="91.4,37.4 46.6,37.4 38.3,66.7 91.4,66.7 	"/>
	<rect x="103.6" y="37.4" class="st0" width="53.2" height="29.3"/>
	<polygon class="st0" points="168.4,37.4 168.4,66.7 218.2,66.7 209.9,37.4 	"/>
	<polygon class="st0" points="30.2,105.5 91.6,105.5 91.6,76.2 38.5,76.2 	"/>
	<rect x="103.7" y="76.2" class="st0" width="53.2" height="29.3"/>
	<polygon class="st0" points="168.6,105.5 226.7,105.5 218.4,76.2 168.6,76.2 	"/>
	<polygon class="st0" points="23.5,144.6 91.6,144.6 91.6,115.4 31.9,115.4 	"/>
	<rect x="103.7" y="115.4" class="st0" width="53.2" height="29.3"/>
	<polygon class="st0" points="168.6,115.4 168.6,144.6 235,144.6 226.7,115.4 	"/>
	<path class="st0" d="M126.7,207.1H87.9c-1.8,0-3.3,1.5-3.3,3.3v27.3c0,1.8,1.5,3.3,3.3,3.3h90.8c1.8,0,3.3-1.5,3.3-3.3v-27.3
		c0-1.8-1.5-3.3-3.3-3.3h-39.9v-11.4h-12.2C126.7,195.7,126.7,207.1,126.7,207.1z"/>
</g>
</svg>
