<svg height="682pt" viewBox="-21 -21 682 682.66882" width="682pt" xmlns="http://www.w3.org/2000/svg"><path d="m636.578125 238.074219c-4.089844-6.042969-10.910156-9.65625-18.253906-9.65625h-318.195313c-2.433594-5.664063-9.152344-16.195313-7.175781-22.597657.949219-3.070312 10.210937-8.851562 15.75-12.304687 11.953125-7.460937 25.5-15.914063 25.5-29.410156 0-13.492188-13.542969-21.949219-25.492187-29.414063-5.535157-3.453125-14.800782-9.238281-15.746094-12.308594-1.078125-3.511718 3.257812-13.53125 6.128906-20.160156 5.734375-13.25 11.667969-26.945312 4.269531-37.644531-7.546875-10.910156-22.652343-10.140625-37.269531-9.386719-6.640625.339844-17.753906.910156-20.496094-1.191406-2.753906-2.109375-5.148437-12.964844-6.578125-19.449219-3.164062-14.351562-6.429687-29.195312-19.0625-33.511719-12.3125-4.207031-23.769531 5.34375-34.847656 14.585938-5.570313 4.648438-13.996094 11.675781-17.816406 11.675781-3.824219 0-12.246094-7.03125-17.820313-11.679687-11.074218-9.25-22.523437-18.804688-34.835937-14.601563-12.632813 4.316407-15.910157 19.15625-19.078125 33.507813-1.429688 6.484375-3.824219 17.335937-6.578125 19.445312-2.75 2.105469-13.863281 1.53125-20.5 1.1875-14.617188-.757812-29.722657-1.539062-37.277344 9.375-7.398437 10.699219-1.46875 24.394532 4.261719 37.648438 2.871094 6.628906 7.207031 16.648437 6.125 20.160156-.953125 3.070312-10.214844 8.851562-15.753906 12.304688-11.953126 7.460937-25.496094 15.914062-25.5 29.410156 0 13.488281 13.542968 21.945312 25.492187 29.40625 5.535156 3.457031 14.800781 9.246094 15.746094 12.316406 1.085937 3.511719-3.257813 13.53125-6.128907 20.15625-5.734374 13.246094-11.667968 26.945312-4.269531 37.644531 7.546875 10.914063 22.65625 10.136719 37.269531 9.390625 6.640626-.34375 17.753907-.914062 20.5 1.191406 2.75 2.109376 5.144532 12.964844 6.574219 19.449219 3.164063 14.347657 6.433594 29.191407 19.0625 33.507813 12.320313 4.210937 23.769531-5.339844 34.847657-14.582032 5.570312-4.648437 13.996093-11.675781 17.816406-11.675781 3.828125 0 12.246094 7.03125 17.820312 11.679688 4.457032 3.71875 8.976563 7.484375 13.585938 10.390625l-66.351563 164.910156c-5.6875 14.132812 5.289063 29.800781 20.394531 29.800781h170.628907v66.546875h-12.480469c-25.601562 0-46.433594 20.832032-46.433594 46.4375 0 5.175782 4.199219 9.375 9.375 9.375h87.976563c12.039062 0 12.058593-18.75 0-18.75h-76.96875c3.851562-10.671875 14.074219-18.3125 26.050781-18.3125h85.128906c11.972656 0 22.203125 7.640625 26.050782 18.3125h-15.265626c-12.035156 0-12.054687 18.75 0 18.75h26.273438c5.175781 0 9.371094-4.199218 9.371094-9.375 0-25.605468-20.828125-46.4375-46.429688-46.4375h-12.484375v-66.546875h127.40625c14.238281 0 26.839844-8.441406 32.097657-21.515625l9.488281-23.582031c4.5-11.175781-12.828125-18.34375-17.394531-6.996094l-9.484376 23.578125c-2.390624 5.933594-8.160156 9.769532-14.707031 9.769532h-45.558593l46.886718-116.492188h56.316406l-17.359374 43.144531c-4.496094 11.179688 12.828124 18.34375 17.394531 7l70.152343-174.328125c2.675782-6.660156 1.875-14.191406-2.148437-20.148437zm-253.03125 260.824219 46.886719-116.492188h61.578125l-46.882813 116.492188zm-233.566406-1.40625c-.382813-.570313-.75-1.5-.285157-2.652344l45.242188-112.433594h51.703125l-46.882813 116.488281h-47.0625c-1.535156.003907-2.363281-.875-2.714843-1.402343zm17.273437-215.378907c-.007812 0-.007812 0-.007812 0-10.617188 0-20.382813 8.148438-29.828125 16.023438-4.492188 3.75-13.835938 11.589843-16.761719 11.25-2.746094-1.289063-5.605469-14.269531-6.828125-19.8125-2.605469-11.8125-5.296875-24.023438-13.480469-30.292969-5.742187-4.398438-13.578125-5.414062-21.910156-5.414062-3.601562 0-7.296875.1875-10.953125.378906-5.664063.289062-18.933594.972656-20.859375-1.277344-1.246094-2.789062 3.664062-14.128906 6.023438-19.578125 4.898437-11.3125 9.964843-23.003906 6.839843-33.136719-3.007812-9.746094-13.070312-16.03125-23.730469-22.6875-4.988281-3.113281-16.671874-10.414062-16.671874-13.507812 0-3.097656 11.6875-10.386719 16.679687-13.503906 10.65625-6.648438 20.726563-12.933594 23.734375-22.679688 3.128906-10.132812-1.933594-21.824219-6.828125-33.140625-2.355469-5.449219-7.265625-16.789063-6.054687-19.519531 1.964843-2.308594 15.230468-1.621094 20.894531-1.328125 12.113281.625 24.644531 1.273437 32.867187-5.023438 8.1875-6.269531 10.882813-18.484375 13.488282-30.292969 1.222656-5.542968 4.089843-18.523437 6.738281-19.78125 3.046875-.3125 12.363281 7.476563 16.851562 11.226563 9.445313 7.878906 19.210938 16.027344 29.828125 16.035156h.007813c10.617187 0 20.382812-8.152343 29.828125-16.027343 4.492187-3.75 13.847656-11.558594 16.761718-11.246094 2.746094 1.285156 5.605469 14.269531 6.828126 19.8125 2.605468 11.808594 5.296874 24.023437 13.484374 30.292968 8.21875 6.296876 20.746094 5.65625 32.863282 5.03125 5.664062-.292968 18.929687-.96875 20.855468 1.28125 1.246094 2.78125-3.664062 14.125-6.023437 19.574219-4.898437 11.3125-9.964844 23.007813-6.839844 33.140625 3.007813 9.746094 13.070313 16.03125 23.730469 22.683594 4.988281 3.117188 16.671875 10.417969 16.671875 13.511719 0 3.097656-11.6875 10.386719-16.679687 13.5-10.65625 6.652343-20.726563 12.9375-23.734376 22.683593-2.667968 8.636719.625 18.417969 4.6875 28.128907h-19.601562c-14.238281 0-26.835938 8.441406-32.101562 21.515625l-22.203126 55.183594c-3.203124-2.34375-6.550781-5.136719-8.742187-6.96875-9.441406-7.882813-19.207031-16.03125-29.824219-16.035157zm78.167969-25.179687c2.386719-5.933594 8.160156-9.765625 14.707031-9.765625h40.945313l-46.882813 116.488281h-51.714844zm-25.453125 241.964844 46.882812-116.492188h61.582032l-46.890625 116.492188zm162.898438-251.730469-46.890626 116.488281h-61.574218l46.882812-116.488281zm81.792968 0-46.890625 116.488281h-61.578125l46.886719-116.488281zm20.207032 0h61.578124l-46.882812 116.488281h-61.582031zm-136.222657 135.238281h61.582031l-46.890624 116.492188h-61.578126zm16.097657 135.238281v66.546875h-22.667969v-66.546875zm201.914062-270.476562h51.667969c2.089843 0 3.832031 1.996093 3.003906 4.050781l-45.238281 112.441406h-56.320313zm0 0"/><path d="m252.609375 164.097656c.007813-48.507812-38.273437-87.976562-85.328125-87.980468-.003906 0-.007812 0-.015625 0-7.421875 0-14.792969.988281-21.914063 2.929687-8 2.183594-9.167968 13.0625-2.121093 17.085937 6.367187 3.636719 16.941406-1.269531 24.050781-1.269531 36.714844.007813 66.582031 31.0625 66.578125 69.226563 0 18.550781-6.96875 35.972656-19.625 49.058594-12.5625 12.996093-29.242187 20.152343-46.96875 20.152343 0 0-.003906 0-.007813 0-17.726562 0-34.410156-7.164062-46.972656-20.167969-12.648437-13.089843-19.609375-30.511718-19.609375-49.0625.003907-17.578124 6.351563-34.328124 17.875-47.175781 8.042969-8.960937-5.902343-21.496093-13.953125-12.523437-14.617187 16.292968-22.667968 37.492187-22.671875 59.699218 0 23.433594 8.832031 45.488282 24.878907 62.089844 16.125 16.695313 37.597656 25.882813 60.449218 25.890625h.011719c22.851563 0 44.324219-9.191406 60.449219-25.871093 16.050781-16.59375 24.894531-38.644532 24.894531-62.082032zm0 0"/></svg>