<?xml version="1.0" encoding="utf-8"?>
<svg xmlns="http://www.w3.org/2000/svg">
<symbol id="calculator" viewBox="0 0 60 60">
	<path d="M50.586,0H9.414C7.807,0,6.5,1.308,6.5,2.914v54.172C6.5,58.692,7.807,60,9.414,60h41.172c1.607,0,2.914-1.308,2.914-2.914   V2.914C53.5,1.308,52.193,0,50.586,0z M51.5,57.086C51.5,57.59,51.09,58,50.586,58H9.414C8.91,58,8.5,57.59,8.5,57.086V2.914   C8.5,2.41,8.91,2,9.414,2h41.172C51.09,2,51.5,2.41,51.5,2.914V57.086z"/>
	<path d="m11.5 55h11v-11h-11v11zm2-9h7v7h-7v-7z"/>
	<path d="m24.5 55h11v-11h-11v11zm2-9h7v7h-7v-7z"/>
	<path d="m37.5 55h11v-24h-11v24zm2-22h7v20h-7v-20z"/>
	<path d="m11.5 42h11v-11h-11v11zm2-9h7v7h-7v-7z"/>
	<path d="m24.5 42h11v-11h-11v11zm2-9h7v7h-7v-7z"/>
	<path d="m11.5 29h11v-11h-11v11zm2-9h7v7h-7v-7z"/>
	<path d="m24.5 29h11v-11h-11v11zm2-9h7v7h-7v-7z"/>
	<path d="m37.5 29h11v-11h-11v11zm2-9h7v7h-7v-7z"/>
	<path d="m11.5 15h37v-10h-37v10zm2-8h33v6h-33v-6z"/>

</symbol>
<symbol id="calendar" viewBox="0 0 480 480"><path d="m399.832031 54.398438c-.0625-.277344-.230469-.496094-.3125-.757813-.136719-.449219-.316406-.882813-.535156-1.296875-.25-.476562-.550781-.921875-.894531-1.335938-.277344-.34375-.582032-.664062-.914063-.960937-.402343-.339844-.84375-.632813-1.3125-.878906-.394531-.238281-.8125-.441407-1.246093-.609375-.519532-.164063-1.058594-.273438-1.601563-.328125-.332031-.097657-.671875-.175781-1.015625-.230469h-40.335938c-2.0625-27.847656-14.984374-48-31.664062-48s-29.601562 20.152344-31.664062 48h-16.671876c-2.0625-27.847656-14.984374-48-31.664062-48s-29.601562 20.152344-31.664062 48h-16.671876c-2.0625-27.847656-14.984374-48-31.664062-48s-29.601562 20.152344-31.664062 48h-16.671876c-2.0625-27.847656-14.984374-48-31.664062-48s-29.601562 20.152344-31.664062 48h-40.335938c-4.417969 0-8 3.582031-8 8v416c0 4.417969 3.582031 8 8 8h384c4.417969 0 8-3.582031 8-8v-24h72c2.402344 0 4.675781-1.082031 6.191406-2.941406 1.519532-1.863282 2.121094-4.304688 1.640625-6.660156zm-79.832031-38.398438c5.777344 0 13.839844 12.257812 15.617188 32h-31.203126c1.746094-19.742188 9.808594-32 15.585938-32zm-80 0c5.777344 0 13.839844 12.257812 15.617188 32h-31.203126c1.746094-19.742188 9.808594-32 15.585938-32zm-80 0c5.777344 0 13.839844 12.257812 15.617188 32h-31.203126c1.746094-19.742188 9.808594-32 15.585938-32zm-80 0c5.777344 0 13.839844 12.257812 15.617188 32h-31.203126c1.746094-19.742188 9.808594-32 15.585938-32zm-64 48h32.335938c2.0625 27.847656 14.984374 48 31.664062 48 4.417969 0 8-3.582031 8-8s-3.582031-8-8-8c-5.777344 0-13.839844-12.257812-15.617188-32h63.953126c2.089843 27.847656 14.984374 48 31.664062 48 4.417969 0 8-3.582031 8-8s-3.582031-8-8-8c-5.777344 0-13.839844-12.257812-15.617188-32h63.953126c2.089843 27.847656 14.984374 48 31.664062 48 4.417969 0 8-3.582031 8-8s-3.582031-8-8-8c-5.777344 0-13.839844-12.257812-15.617188-32h63.953126c2.089843 27.847656 14.984374 48 31.664062 48 4.417969 0 8-3.582031 8-8s-3.582031-8-8-8c-5.777344 0-13.839844-12.257812-15.617188-32h79.617188v80h-368zm368 400h-368v-304h368zm16-32v-298.398438l62.167969 298.398438zm0 0"/><path d="m176 288h-32c-4.417969 0-8 3.582031-8 8v32c0 4.417969 3.582031 8 8 8h32c4.417969 0 8-3.582031 8-8v-32c0-4.417969-3.582031-8-8-8zm-8 32h-16v-16h16zm0 0"/><path d="m256 288h-32c-4.417969 0-8 3.582031-8 8v32c0 4.417969 3.582031 8 8 8h32c4.417969 0 8-3.582031 8-8v-32c0-4.417969-3.582031-8-8-8zm-8 32h-16v-16h16zm0 0"/><path d="m96 288h-32c-4.417969 0-8 3.582031-8 8v32c0 4.417969 3.582031 8 8 8h32c4.417969 0 8-3.582031 8-8v-32c0-4.417969-3.582031-8-8-8zm-8 32h-16v-16h16zm0 0"/><path d="m176 368h-32c-4.417969 0-8 3.582031-8 8v32c0 4.417969 3.582031 8 8 8h32c4.417969 0 8-3.582031 8-8v-32c0-4.417969-3.582031-8-8-8zm-8 32h-16v-16h16zm0 0"/><path d="m256 368h-32c-4.417969 0-8 3.582031-8 8v32c0 4.417969 3.582031 8 8 8h32c4.417969 0 8-3.582031 8-8v-32c0-4.417969-3.582031-8-8-8zm-8 32h-16v-16h16zm0 0"/><path d="m96 368h-32c-4.417969 0-8 3.582031-8 8v32c0 4.417969 3.582031 8 8 8h32c4.417969 0 8-3.582031 8-8v-32c0-4.417969-3.582031-8-8-8zm-8 32h-16v-16h16zm0 0"/><path d="m176 208h-32c-4.417969 0-8 3.582031-8 8v32c0 4.417969 3.582031 8 8 8h32c4.417969 0 8-3.582031 8-8v-32c0-4.417969-3.582031-8-8-8zm-8 32h-16v-16h16zm0 0"/><path d="m256 208h-32c-4.417969 0-8 3.582031-8 8v32c0 4.417969 3.582031 8 8 8h32c4.417969 0 8-3.582031 8-8v-32c0-4.417969-3.582031-8-8-8zm-8 32h-16v-16h16zm0 0"/><path d="m336 288h-32c-4.417969 0-8 3.582031-8 8v32c0 4.417969 3.582031 8 8 8h32c4.417969 0 8-3.582031 8-8v-32c0-4.417969-3.582031-8-8-8zm-8 32h-16v-16h16zm0 0"/><path d="m336 368h-32c-4.417969 0-8 3.582031-8 8v32c0 4.417969 3.582031 8 8 8h32c4.417969 0 8-3.582031 8-8v-32c0-4.417969-3.582031-8-8-8zm-8 32h-16v-16h16zm0 0"/><path d="m336 208h-32c-4.417969 0-8 3.582031-8 8v32c0 4.417969 3.582031 8 8 8h32c4.417969 0 8-3.582031 8-8v-32c0-4.417969-3.582031-8-8-8zm-8 32h-16v-16h16zm0 0"/><path d="m96 208h-32c-4.417969 0-8 3.582031-8 8v32c0 4.417969 3.582031 8 8 8h32c4.417969 0 8-3.582031 8-8v-32c0-4.417969-3.582031-8-8-8zm-8 32h-16v-16h16zm0 0"/>
</symbol>
<symbol id="dollar-bill" viewBox="0 0 512 512">
			<path d="m440 123h-440v266h512v-266h-72zm52 197c-25.333 7.333-41.667 23.667-49 49h-374c-7.333-25.333-23.667-41.667-49-49v-128c25.333-7.334 41.667-23.667 49-49h374c7.334 24.667 23.668 41 49 49v128z"/>
			<path d="m256 154c-25.333 0-47 10-65 30s-27 44-27 72 9 52 27 72 39.667 30 65 30 47-10 65-30 27-44 27-72-9-52-27-72-39.667-30-65-30zm39 160c-6 5.333-15.667 9-29 11v13h-20v-13c-12.667-2-21.667-5-27-9-9.333-7.333-14-17-14-29h25c0.667 0 1.167 0.667 1.5 2s0.833 3 1.5 5c0.668 2 1.334 3.333 2 4 1.333 1.334 5 2.667 11 4v-34c-12.667-3.333-21.333-6.667-26-10-8.667-6-13-15-13-27s4.333-21.667 13-29c6-6 14.667-9.667 26-11v-17h20v18c7.333 1.333 15.333 5 24 11 4 2.667 6.833 5 8.5 7s3.333 5.167 5 9.5 2.833 9.833 3.5 16.5h-26c-0.667-8.668-4.667-14.668-12-18l-3-2v32l9 1c12 3.334 20 6.668 24 10 7.333 5.333 11 14 11 26 0 11.333-5 21-15 29z"/>
			<path d="m278 277c-4-2-8-3.333-12-4v30l2.5-0.5c1.667-0.333 2.833-0.5 3.5-0.5 7.333-2.667 11-7.667 11-15 0-4-1.667-7.333-5-10z"/>
			<path d="m232 229c0 4 2 7.333 6 10 1.333 0.667 4 1.667 8 3v-28c-3.333 0.667-6 1.667-8 3-4 2.667-6 6.667-6 12z"/>		

</symbol>
<symbol id="facebook" viewBox="0 0 49.652 49.652">
		<path d="m24.826 0c-13.689 0-24.826 11.137-24.826 24.826 0 13.688 11.137 24.826 24.826 24.826 13.688 0 24.826-11.138 24.826-24.826 0-13.689-11.136-24.826-24.826-24.826zm6.174 25.7h-4.039v14.396h-5.985v-14.396h-2.845v-5.088h2.845v-3.291c0-2.357 1.12-6.04 6.04-6.04l4.435 0.017v4.939h-3.219c-0.524 0-1.269 0.262-1.269 1.386v2.99h4.56l-0.523 5.087z"/>

</symbol>
<symbol id="instagram" viewBox="0 0 49.652 49.652">
<g>
	<g>
		<g>
			<path d="M24.825,29.796c2.739,0,4.972-2.229,4.972-4.97c0-1.082-0.354-2.081-0.94-2.897c-0.903-1.252-2.371-2.073-4.029-2.073
				c-1.659,0-3.126,0.82-4.031,2.072c-0.588,0.816-0.939,1.815-0.94,2.897C19.854,27.566,22.085,29.796,24.825,29.796z"/>
			<polygon points="35.678,18.746 35.678,14.58 35.678,13.96 35.055,13.962 30.891,13.975 30.907,18.762 			"/>
			<path d="M24.826,0C11.137,0,0,11.137,0,24.826c0,13.688,11.137,24.826,24.826,24.826c13.688,0,24.826-11.138,24.826-24.826
				C49.652,11.137,38.516,0,24.826,0z M38.945,21.929v11.56c0,3.011-2.448,5.458-5.457,5.458H16.164
				c-3.01,0-5.457-2.447-5.457-5.458v-11.56v-5.764c0-3.01,2.447-5.457,5.457-5.457h17.323c3.01,0,5.458,2.447,5.458,5.457V21.929z"/>
			<path d="M32.549,24.826c0,4.257-3.464,7.723-7.723,7.723c-4.259,0-7.722-3.466-7.722-7.723c0-1.024,0.204-2.003,0.568-2.897
				h-4.215v11.56c0,1.494,1.213,2.704,2.706,2.704h17.323c1.491,0,2.706-1.21,2.706-2.704v-11.56h-4.217
				C32.342,22.823,32.549,23.802,32.549,24.826z"/>
		</g>
	</g>
</g>
<g>
</g>
<g>
</g>
<g>
</g>
<g>
</g>
<g>
</g>
<g>
</g>
<g>
</g>
<g>
</g>
<g>
</g>
<g>
</g>
<g>
</g>
<g>
</g>
<g>
</g>
<g>
</g>
<g>
</g>

</symbol>
<symbol id="light-bulb" viewBox="0 0 431.76 431.76">
<g>
	<g>
		<path d="M215.88,85.12C153.556,85.164,103.044,135.676,103,198c0.557,40.682,20.351,78.696,53.36,102.48V382
			c0.027,0.932,0.216,1.853,0.56,2.72v0.64c0.138,0.33,0.299,0.651,0.48,0.96l28.16,41.92c1.49,2.205,3.979,3.524,6.64,3.52h46.56
			c2.661,0.004,5.15-1.315,6.64-3.52l28.16-41.92c0.181-0.309,0.342-0.63,0.48-0.96v-0.64c0.344-0.867,0.533-1.788,0.56-2.72v-81.52
			c33.01-23.784,52.803-61.798,53.36-102.48C327.918,135.987,277.891,85.603,215.88,85.12z M234.92,416h-38.08l-17.44-25.92h72.88
			L234.92,416z M172.44,374.08v-21.2h86.88l0.08,21.2H172.44z M263,289.52l0,0.24c-2.259,1.487-3.613,4.015-3.6,6.72v40.64h-86.96
			V296c0.013-2.705-1.341-5.233-3.6-6.72c-30.628-20.467-49.233-54.687-49.76-91.52c1.537-53.483,46.14-95.594,99.623-94.057
			c51.323,1.475,92.582,42.734,94.057,94.057C312.312,234.679,293.697,269.005,263,289.52z"/>
	</g>
</g>
<g>
	<g>
		<path d="M219.08,121.36c-4.418,0-8,3.582-8,8s3.582,8,8,8c33.251,0.044,60.196,26.989,60.24,60.24c0,4.418,3.582,8,8,8
			s8-3.582,8-8C295.276,155.512,261.168,121.404,219.08,121.36z"/>
	</g>
</g>
<g>
	<g>
		<path d="M81.48,189.6h-57.6c-4.418,0-8,3.582-8,8s3.582,8,8,8h57.6c4.418,0,8-3.582,8-8c0,0,0,0,0,0
			C89.48,193.182,85.898,189.6,81.48,189.6z"/>
	</g>
</g>
<g>
	<g>
		<path d="M407.88,189.6h-57.6c-4.418,0-8,3.582-8,8s3.582,8,8,8h57.6c4.418,0,8-3.582,8-8S412.298,189.6,407.88,189.6z"/>
	</g>
</g>
<g>
	<g>
		<path d="M127.313,287.12c-2.874-3.356-7.924-3.747-11.28-0.873c-0.313,0.268-0.605,0.56-0.873,0.873v-0.16L74.28,328
			c-3.356,2.874-3.747,7.924-0.873,11.28c2.874,3.356,7.924,3.747,11.28,0.873c0.313-0.268,0.605-0.56,0.873-0.873l40.88-40.88
			C129.796,295.526,130.187,290.476,127.313,287.12z"/>
	</g>
</g>
<g>
	<g>
		<path d="M356.607,56c-2.995-2.565-7.412-2.565-10.407,0l-40.88,40.88c-3.137,3.111-3.158,8.177-0.047,11.314
			c1.513,1.526,3.577,2.379,5.727,2.366l-0.08-0.08c2.126,0.012,4.17-0.823,5.68-2.32l40.88-40.88
			C360.354,63.924,359.963,58.874,356.607,56z"/>
	</g>
</g>
<g>
	<g>
		<path d="M359.067,329.609c-0.45-0.609-0.984-1.151-1.587-1.609l-40.88-41.04c-2.874-3.356-7.924-3.747-11.28-0.873
			c-3.356,2.874-3.747,7.924-0.873,11.28c0.268,0.313,0.56,0.605,0.873,0.873l40.88,40.88c2.626,3.553,7.636,4.304,11.189,1.678
			S361.693,333.162,359.067,329.609z"/>
	</g>
</g>
<g>
	<g>
		<path d="M126.44,96.88L85.56,56c-3.356-2.874-8.406-2.483-11.28,0.873c-2.565,2.995-2.565,7.412,0,10.407l40.88,40.88
			c3.356,2.874,8.406,2.483,11.28-0.873C129.005,104.292,129.005,99.875,126.44,96.88z"/>
	</g>
</g>
<g>
	<g>
		<path d="M215.88,0c-4.418,0-8,3.582-8,8v57.84c-0.133,4.416,3.34,8.104,7.756,8.236c0.081,0.002,0.162,0.004,0.244,0.004
			c4.418,0,8-3.582,8-8V8C223.88,3.582,220.298,0,215.88,0z"/>
	</g>
</g>
<g>
</g>
<g>
</g>
<g>
</g>
<g>
</g>
<g>
</g>
<g>
</g>
<g>
</g>
<g>
</g>
<g>
</g>
<g>
</g>
<g>
</g>
<g>
</g>
<g>
</g>
<g>
</g>
<g>
</g>

</symbol>
<symbol id="lightning" viewBox="0 0 512 512">
<path d="m373.76 7.119c-2.739-4.424-7.558-7.119-12.759-7.119h-90c-6.006 0-11.426 3.574-13.784 9.097l-90 211c-1.992 4.629-1.509 9.946 1.26 14.165 2.783 4.204 7.485 6.738 12.524 6.738h39.185l-83.408 251.25c-2.432 7.266 1.011 15.176 7.954 18.369 2.021 0.938 4.16 1.377 6.255 1.377 5.127 0 10.093-2.637 12.876-7.28l180-301c2.783-4.644 2.856-10.415 0.19-15.117s-7.646-7.603-13.052-7.603h-35.728l79.146-159.29c2.329-4.644 2.08-10.166-0.659-14.59z"/>

</symbol>
<symbol id="logo" viewBox="0 0 410.56 51.92">
		<path class="st0" d="m112.2 13.61c0 6.19-3.46 9.36-7.2 11.3 5.9 2.02 10.01 5.4 10.01 12.31 0 9.07-7.42 13.9-18.65 13.9h-23.34v-50.4h22.61c10.16 0 16.57 4.97 16.57 12.89zm-8.86 1.44c0-4.1-3.17-6.48-8.86-6.48h-12.74v13.39h12.1c5.68 0 9.5-2.23 9.5-6.91zm2.81 21.24c0-4.32-3.38-6.84-10.37-6.84h-14.04v13.83h14.69c6.04 0 9.72-2.38 9.72-6.99z"/>
		<path class="st0" d="M125.01,0.72h8.86v42.34h26.5v8.06h-35.35V0.72z"/>
		<path class="st0" d="m210.47 29.31c0 15.05-8.5 22.61-21.67 22.61-13.11 0-21.46-7.56-21.46-22.18v-29.02h8.86v28.66c0 9.36 4.82 14.4 12.75 14.4 7.85 0 12.67-4.75 12.67-14.04v-29.02h8.86v28.59z"/>
		<path class="st0" d="M260.01,8.64h-28.51v13.11h25.27v7.92h-25.27V43.2h28.88v7.92h-37.73V0.72h37.37V8.64z"/>
		<path class="st0" d="m290.32 21.89c10.66 2.59 16.2 6.41 16.2 14.83 0 9.5-7.42 15.12-18 15.12-7.71 0-14.98-2.66-21.03-8.06l5.33-6.34c4.82 4.18 9.65 6.55 15.91 6.55 5.47 0 8.93-2.52 8.93-6.41 0-3.67-2.02-5.62-11.38-7.78-10.73-2.59-16.78-5.76-16.78-15.12 0-8.78 7.2-14.69 17.21-14.69 7.34 0 13.18 2.23 18.29 6.34l-4.75 6.7c-4.54-3.38-9.07-5.18-13.68-5.18-5.18 0-8.21 2.66-8.21 6.05 0.01 3.96 2.31 5.69 11.96 7.99z"/>
		<path class="st0" d="m361.6 51.12h-10.73l-17.21-22.68-7.85 8.06v14.62h-8.86v-50.4h8.86v25.35l23.98-25.35h10.87l-20.95 21.67 21.89 28.73z"/>
		<path class="st0" d="M390.54,51.12h-8.93V31.25L361.6,0.72h10.44l14.11,22.32l14.26-22.32h10.15l-20.02,30.31V51.12z"/>
				<path class="st0" d="m51.08 2.48c0-0.96-0.97-1.74-2.16-1.74h-41.1c-1.19 0-2.16 0.78-2.16 1.74l-5.66 29.25c0 0.96 0.97 1.74 2.16 1.74h3.27c1.52 1.05 11.29 7.41 23.88 7.41 6.8 0 14.42-1.86 22-7.41h4.77c1.19 0 2.16-0.78 2.16-1.74l-7.16-29.25zm-42.81 30.99h40.41c-17.33 11.35-34.5 3.43-40.41 0zm-5.67-2.09l5.65-28.56h40.24l7.16 28.56h-53.05z"/>
				<polygon class="st0" points="20.36 4.93 10.18 4.93 8.3 11.58 20.36 11.58"/>
				<rect class="st0" x="23.12" y="4.93" width="12.07" height="6.66"/>
				<polygon class="st0" points="37.83 4.93 37.83 11.58 49.14 11.58 47.26 4.93"/>
				<polygon class="st0" points="6.46 20.4 20.41 20.4 20.41 13.74 8.35 13.74"/>
				<rect class="st0" x="23.16" y="13.74" width="12.07" height="6.66"/>
				<polygon class="st0" points="37.89 20.4 51.08 20.4 49.19 13.74 37.89 13.74"/>
				<polygon class="st0" points="4.95 29.28 20.41 29.28 20.41 22.63 6.84 22.63"/>
				<rect class="st0" x="23.16" y="22.63" width="12.07" height="6.66"/>
				<polygon class="st0" points="37.89 22.63 37.89 29.28 52.96 29.28 51.08 22.63"/>
				<path class="st0" d="m28.38 43.47h-8.81c-0.42 0-0.75 0.34-0.75 0.75v6.2c0 0.42 0.34 0.75 0.75 0.75h20.62c0.42 0 0.75-0.34 0.75-0.75v-6.2c0-0.42-0.34-0.75-0.75-0.75h-9.05v-2.59h-2.76v2.59z"/>

</symbol>
<symbol id="map" viewBox="0 0 430.114 430.114">
<g>
	<path id="Facebook_Places" d="M356.208,107.051c-1.531-5.738-4.64-11.852-6.94-17.205C321.746,23.704,261.611,0,213.055,0
		C148.054,0,76.463,43.586,66.905,133.427v18.355c0,0.766,0.264,7.647,0.639,11.089c5.358,42.816,39.143,88.32,64.375,131.136
		c27.146,45.873,55.314,90.999,83.221,136.106c17.208-29.436,34.354-59.259,51.17-87.933c4.583-8.415,9.903-16.825,14.491-24.857
		c3.058-5.348,8.9-10.696,11.569-15.672c27.145-49.699,70.838-99.782,70.838-149.104v-20.262
		C363.209,126.938,356.581,108.204,356.208,107.051z M214.245,199.193c-19.107,0-40.021-9.554-50.344-35.939
		c-1.538-4.2-1.414-12.617-1.414-13.388v-11.852c0-33.636,28.56-48.932,53.406-48.932c30.588,0,54.245,24.472,54.245,55.06
		C270.138,174.729,244.833,199.193,214.245,199.193z"/>
</g>
<g>
</g>
<g>
</g>
<g>
</g>
<g>
</g>
<g>
</g>
<g>
</g>
<g>
</g>
<g>
</g>
<g>
</g>
<g>
</g>
<g>
</g>
<g>
</g>
<g>
</g>
<g>
</g>
<g>
</g>

</symbol>
<symbol id="phone" viewBox="0 0 578.106 578.106">
		<path d="m577.83 456.13c1.225 9.385-1.635 17.545-8.568 24.48l-81.396 80.781c-3.672 4.08-8.465 7.551-14.381 10.404-5.916 2.857-11.729 4.693-17.439 5.508-0.408 0-1.635 0.105-3.676 0.309-2.037 0.203-4.689 0.307-7.953 0.307-7.754 0-20.301-1.326-37.641-3.979s-38.555-9.182-63.645-19.584c-25.096-10.404-53.553-26.012-85.376-46.818-31.823-20.805-65.688-49.367-101.59-85.68-28.56-28.152-52.224-55.08-70.992-80.783-18.768-25.705-33.864-49.471-45.288-71.299-11.425-21.828-19.993-41.616-25.705-59.364s-9.588-33.048-11.628-45.9-2.856-22.95-2.448-30.294 0.612-11.424 0.612-12.24c0.816-5.712 2.652-11.526 5.508-17.442s6.324-10.71 10.404-14.382l81.396-81.396c5.712-5.712 12.24-8.568 19.584-8.568 5.304 0 9.996 1.53 14.076 4.59s7.548 6.834 10.404 11.322l65.484 124.24c3.672 6.528 4.692 13.668 3.06 21.42s-5.1 14.28-10.404 19.584l-29.988 29.988c-0.816 0.816-1.53 2.142-2.142 3.978s-0.918 3.366-0.918 4.59c1.632 8.568 5.304 18.36 11.016 29.376 4.896 9.792 12.444 21.726 22.644 35.802s24.684 30.293 43.452 48.653c18.36 18.77 34.68 33.354 48.96 43.76 14.277 10.4 26.215 18.053 35.803 22.949s16.932 7.854 22.031 8.871l7.648 1.531c0.816 0 2.145-0.307 3.979-0.918 1.836-0.613 3.162-1.326 3.979-2.143l34.883-35.496c7.348-6.527 15.912-9.791 25.705-9.791 6.938 0 12.443 1.223 16.523 3.672h0.611l118.12 69.768c8.571 5.308 13.67 12.038 15.303 20.198z"/>

</symbol>
<symbol id="play-button" viewBox="0 0 41.999 41.999">
<path d="m36.068 20.176l-29-20c-0.307-0.211-0.705-0.233-1.033-0.062-0.329 0.173-0.535 0.513-0.535 0.885v40c0 0.372 0.206 0.713 0.535 0.886 0.146 0.076 0.306 0.114 0.465 0.114 0.199 0 0.397-0.06 0.568-0.177l29-20c0.271-0.187 0.432-0.494 0.432-0.823s-0.162-0.636-0.432-0.823z"/>

</symbol>
<symbol id="plug" viewBox="0 0 511.999 511.999">
<g>
	<g>
		<path d="M112.012,401.394c-8.003-8.003-18.643-12.41-29.959-12.41c-6.685,0-13.129,1.55-18.938,4.458
			C6.032,312.568,5.834,201.743,63.598,120.673c3.204-4.498,2.156-10.742-2.342-13.947c-4.498-3.205-10.742-2.157-13.947,2.341
			C15.446,153.786-0.9,206.594,0.038,261.781C0.931,314.3,17.421,364.12,47.802,406.413c-12.072,16.56-10.643,39.962,4.292,54.899
			c8.26,8.259,19.109,12.389,29.959,12.389c10.85,0,21.699-4.13,29.959-12.389C128.531,444.792,128.531,417.914,112.012,401.394z
			 M97.869,447.169c-8.723,8.721-22.912,8.721-31.633,0c-8.722-8.722-8.722-22.913,0-31.634c4.225-4.225,9.842-6.552,15.816-6.552
			s11.592,2.327,15.816,6.552C106.591,424.257,106.591,438.448,97.869,447.169z"/>
	</g>
</g>
<g>
	<g>
		<path d="M407.962,451.145c-3.231-4.476-9.481-5.484-13.96-2.249c-28.588,20.657-60.725,34.342-95.519,40.675
			c-8.062,1.468-16.284-0.693-22.557-5.927c-6.228-5.196-9.799-12.83-9.799-20.943v-73.298H267c11.579,0,21-9.42,21-21V351.52
			c33.873-12.93,58-45.756,58-84.116v-47.345c16.116-4.402,28-19.163,28-36.655c0-19.257-14.403-35.204-33-37.661V83.404
			c0-16.542-13.458-30-30-30s-30,13.458-30,30v62h-50v-62c0-16.542-13.458-30-30-30s-30,13.458-30,30v62.339
			c-18.597,2.457-33,18.403-33,37.661c0,17.492,11.884,32.253,28,36.655v47.345c0,38.36,24.127,71.186,58,84.116v16.884
			c0,11.58,9.421,21,21,21h1.127v73.298c0,14.062,6.191,27.292,16.985,36.299c8.615,7.188,19.351,11.023,30.379,11.023
			c2.849,0,5.717-0.256,8.573-0.776c37.752-6.872,72.625-21.723,103.649-44.141C410.19,461.872,411.196,455.621,407.962,451.145z
			 M301.001,83.404c0-5.514,4.486-10,10-10c5.514,0,10,4.486,10,10v62h-20V83.404z M191.001,83.404c0-5.514,4.486-10,10-10
			c5.514,0,10,4.486,10,10v62h-20V83.404z M158.001,183.404c0-9.925,8.075-18,18-18h160c9.925,0,18,8.075,18,18s-8.075,18-18,18
			h-160C166.076,201.404,158.001,193.329,158.001,183.404z M186.001,267.404v-46h140v46c0,38.598-31.402,70-70,70
			C217.403,337.404,186.001,306.002,186.001,267.404z M256.38,369.404c-0.084-0.002-0.167-0.013-0.251-0.013
			c-0.084,0-0.167,0.011-0.251,0.013h-10.875c-0.554,0-1.002-0.449-1.002-1v-11.802c3.927,0.526,7.932,0.802,12,0.802
			s8.073-0.276,12-0.802v11.802c0,0.551-0.448,1-1,1H256.38z"/>
	</g>
</g>
<g>
	<g>
		<path d="M436.772,424.041c-3.963-3.7-10.138-3.557-13.928,0.274c-0.077,0.078-0.154,0.158-0.227,0.235
			c-3.769,4.038-3.55,10.365,0.487,14.134c1.928,1.799,4.377,2.689,6.821,2.689c2.583,0,5.16-0.995,7.107-2.963
			c0.077-0.078,0.154-0.158,0.227-0.235C441.028,434.137,440.809,427.81,436.772,424.041z"/>
	</g>
</g>
<g>
	<g>
		<path d="M511.321,238.712c-4.455-61.218-30.842-118.866-74.297-162.323c-42.712-42.715-99.768-68.861-160.657-73.62
			C216.22-1.934,156.359,14.388,107.791,48.724c-4.51,3.188-5.581,9.429-2.393,13.938c3.187,4.509,9.429,5.582,13.938,2.393
			c92.873-65.657,223.369-54.706,303.546,25.476c82.857,82.861,92.876,211.536,23.821,305.96c-3.26,4.458-2.289,10.714,2.169,13.975
			c1.78,1.302,3.847,1.929,5.896,1.929c3.081,0,6.121-1.419,8.08-4.098C498.516,359.523,515.732,299.297,511.321,238.712z"/>
	</g>
</g>
<g>
	<g>
		<path d="M87.909,77.545c-3.923-3.887-10.255-3.861-14.143,0.063l-0.163,0.166c-3.888,3.922-3.859,10.254,0.063,14.142
			c1.95,1.932,4.495,2.897,7.04,2.897c2.573,0,5.147-0.988,7.103-2.96l0.163-0.166C91.86,87.765,91.831,81.433,87.909,77.545z"/>
	</g>
</g>
<g>
	<g>
		<path d="M278.548,263.701c-1.792-3.074-5.082-4.964-8.64-4.964h-7.146l13.162-16.626c3.428-4.33,2.696-10.62-1.634-14.047
			c-4.33-3.429-10.62-2.696-14.048,1.633L234.25,262.53c-2.38,3.007-2.831,7.11-1.161,10.562c1.67,3.452,5.167,5.645,9.002,5.645
			h10.66l-12.246,21.622c-2.722,4.806-1.032,10.908,3.772,13.629c1.558,0.882,3.249,1.301,4.92,1.301
			c3.487-0.001,6.872-1.826,8.712-5.074l20.701-36.55C280.364,270.569,280.34,266.775,278.548,263.701z"/>
	</g>
</g>
<g>
</g>
<g>
</g>
<g>
</g>
<g>
</g>
<g>
</g>
<g>
</g>
<g>
</g>
<g>
</g>
<g>
</g>
<g>
</g>
<g>
</g>
<g>
</g>
<g>
</g>
<g>
</g>
<g>
</g>

</symbol>
<symbol id="solar-panel" viewBox="-21 -21 682 682.66882"><path d="m636.578125 238.074219c-4.089844-6.042969-10.910156-9.65625-18.253906-9.65625h-318.195313c-2.433594-5.664063-9.152344-16.195313-7.175781-22.597657.949219-3.070312 10.210937-8.851562 15.75-12.304687 11.953125-7.460937 25.5-15.914063 25.5-29.410156 0-13.492188-13.542969-21.949219-25.492187-29.414063-5.535157-3.453125-14.800782-9.238281-15.746094-12.308594-1.078125-3.511718 3.257812-13.53125 6.128906-20.160156 5.734375-13.25 11.667969-26.945312 4.269531-37.644531-7.546875-10.910156-22.652343-10.140625-37.269531-9.386719-6.640625.339844-17.753906.910156-20.496094-1.191406-2.753906-2.109375-5.148437-12.964844-6.578125-19.449219-3.164062-14.351562-6.429687-29.195312-19.0625-33.511719-12.3125-4.207031-23.769531 5.34375-34.847656 14.585938-5.570313 4.648438-13.996094 11.675781-17.816406 11.675781-3.824219 0-12.246094-7.03125-17.820313-11.679687-11.074218-9.25-22.523437-18.804688-34.835937-14.601563-12.632813 4.316407-15.910157 19.15625-19.078125 33.507813-1.429688 6.484375-3.824219 17.335937-6.578125 19.445312-2.75 2.105469-13.863281 1.53125-20.5 1.1875-14.617188-.757812-29.722657-1.539062-37.277344 9.375-7.398437 10.699219-1.46875 24.394532 4.261719 37.648438 2.871094 6.628906 7.207031 16.648437 6.125 20.160156-.953125 3.070312-10.214844 8.851562-15.753906 12.304688-11.953126 7.460937-25.496094 15.914062-25.5 29.410156 0 13.488281 13.542968 21.945312 25.492187 29.40625 5.535156 3.457031 14.800781 9.246094 15.746094 12.316406 1.085937 3.511719-3.257813 13.53125-6.128907 20.15625-5.734374 13.246094-11.667968 26.945312-4.269531 37.644531 7.546875 10.914063 22.65625 10.136719 37.269531 9.390625 6.640626-.34375 17.753907-.914062 20.5 1.191406 2.75 2.109376 5.144532 12.964844 6.574219 19.449219 3.164063 14.347657 6.433594 29.191407 19.0625 33.507813 12.320313 4.210937 23.769531-5.339844 34.847657-14.582032 5.570312-4.648437 13.996093-11.675781 17.816406-11.675781 3.828125 0 12.246094 7.03125 17.820312 11.679688 4.457032 3.71875 8.976563 7.484375 13.585938 10.390625l-66.351563 164.910156c-5.6875 14.132812 5.289063 29.800781 20.394531 29.800781h170.628907v66.546875h-12.480469c-25.601562 0-46.433594 20.832032-46.433594 46.4375 0 5.175782 4.199219 9.375 9.375 9.375h87.976563c12.039062 0 12.058593-18.75 0-18.75h-76.96875c3.851562-10.671875 14.074219-18.3125 26.050781-18.3125h85.128906c11.972656 0 22.203125 7.640625 26.050782 18.3125h-15.265626c-12.035156 0-12.054687 18.75 0 18.75h26.273438c5.175781 0 9.371094-4.199218 9.371094-9.375 0-25.605468-20.828125-46.4375-46.429688-46.4375h-12.484375v-66.546875h127.40625c14.238281 0 26.839844-8.441406 32.097657-21.515625l9.488281-23.582031c4.5-11.175781-12.828125-18.34375-17.394531-6.996094l-9.484376 23.578125c-2.390624 5.933594-8.160156 9.769532-14.707031 9.769532h-45.558593l46.886718-116.492188h56.316406l-17.359374 43.144531c-4.496094 11.179688 12.828124 18.34375 17.394531 7l70.152343-174.328125c2.675782-6.660156 1.875-14.191406-2.148437-20.148437zm-253.03125 260.824219 46.886719-116.492188h61.578125l-46.882813 116.492188zm-233.566406-1.40625c-.382813-.570313-.75-1.5-.285157-2.652344l45.242188-112.433594h51.703125l-46.882813 116.488281h-47.0625c-1.535156.003907-2.363281-.875-2.714843-1.402343zm17.273437-215.378907c-.007812 0-.007812 0-.007812 0-10.617188 0-20.382813 8.148438-29.828125 16.023438-4.492188 3.75-13.835938 11.589843-16.761719 11.25-2.746094-1.289063-5.605469-14.269531-6.828125-19.8125-2.605469-11.8125-5.296875-24.023438-13.480469-30.292969-5.742187-4.398438-13.578125-5.414062-21.910156-5.414062-3.601562 0-7.296875.1875-10.953125.378906-5.664063.289062-18.933594.972656-20.859375-1.277344-1.246094-2.789062 3.664062-14.128906 6.023438-19.578125 4.898437-11.3125 9.964843-23.003906 6.839843-33.136719-3.007812-9.746094-13.070312-16.03125-23.730469-22.6875-4.988281-3.113281-16.671874-10.414062-16.671874-13.507812 0-3.097656 11.6875-10.386719 16.679687-13.503906 10.65625-6.648438 20.726563-12.933594 23.734375-22.679688 3.128906-10.132812-1.933594-21.824219-6.828125-33.140625-2.355469-5.449219-7.265625-16.789063-6.054687-19.519531 1.964843-2.308594 15.230468-1.621094 20.894531-1.328125 12.113281.625 24.644531 1.273437 32.867187-5.023438 8.1875-6.269531 10.882813-18.484375 13.488282-30.292969 1.222656-5.542968 4.089843-18.523437 6.738281-19.78125 3.046875-.3125 12.363281 7.476563 16.851562 11.226563 9.445313 7.878906 19.210938 16.027344 29.828125 16.035156h.007813c10.617187 0 20.382812-8.152343 29.828125-16.027343 4.492187-3.75 13.847656-11.558594 16.761718-11.246094 2.746094 1.285156 5.605469 14.269531 6.828126 19.8125 2.605468 11.808594 5.296874 24.023437 13.484374 30.292968 8.21875 6.296876 20.746094 5.65625 32.863282 5.03125 5.664062-.292968 18.929687-.96875 20.855468 1.28125 1.246094 2.78125-3.664062 14.125-6.023437 19.574219-4.898437 11.3125-9.964844 23.007813-6.839844 33.140625 3.007813 9.746094 13.070313 16.03125 23.730469 22.683594 4.988281 3.117188 16.671875 10.417969 16.671875 13.511719 0 3.097656-11.6875 10.386719-16.679687 13.5-10.65625 6.652343-20.726563 12.9375-23.734376 22.683593-2.667968 8.636719.625 18.417969 4.6875 28.128907h-19.601562c-14.238281 0-26.835938 8.441406-32.101562 21.515625l-22.203126 55.183594c-3.203124-2.34375-6.550781-5.136719-8.742187-6.96875-9.441406-7.882813-19.207031-16.03125-29.824219-16.035157zm78.167969-25.179687c2.386719-5.933594 8.160156-9.765625 14.707031-9.765625h40.945313l-46.882813 116.488281h-51.714844zm-25.453125 241.964844 46.882812-116.492188h61.582032l-46.890625 116.492188zm162.898438-251.730469-46.890626 116.488281h-61.574218l46.882812-116.488281zm81.792968 0-46.890625 116.488281h-61.578125l46.886719-116.488281zm20.207032 0h61.578124l-46.882812 116.488281h-61.582031zm-136.222657 135.238281h61.582031l-46.890624 116.492188h-61.578126zm16.097657 135.238281v66.546875h-22.667969v-66.546875zm201.914062-270.476562h51.667969c2.089843 0 3.832031 1.996093 3.003906 4.050781l-45.238281 112.441406h-56.320313zm0 0"/><path d="m252.609375 164.097656c.007813-48.507812-38.273437-87.976562-85.328125-87.980468-.003906 0-.007812 0-.015625 0-7.421875 0-14.792969.988281-21.914063 2.929687-8 2.183594-9.167968 13.0625-2.121093 17.085937 6.367187 3.636719 16.941406-1.269531 24.050781-1.269531 36.714844.007813 66.582031 31.0625 66.578125 69.226563 0 18.550781-6.96875 35.972656-19.625 49.058594-12.5625 12.996093-29.242187 20.152343-46.96875 20.152343 0 0-.003906 0-.007813 0-17.726562 0-34.410156-7.164062-46.972656-20.167969-12.648437-13.089843-19.609375-30.511718-19.609375-49.0625.003907-17.578124 6.351563-34.328124 17.875-47.175781 8.042969-8.960937-5.902343-21.496093-13.953125-12.523437-14.617187 16.292968-22.667968 37.492187-22.671875 59.699218 0 23.433594 8.832031 45.488282 24.878907 62.089844 16.125 16.695313 37.597656 25.882813 60.449218 25.890625h.011719c22.851563 0 44.324219-9.191406 60.449219-25.871093 16.050781-16.59375 24.894531-38.644532 24.894531-62.082032zm0 0"/>
</symbol>
<symbol id="twitter" viewBox="0 0 49.652 49.652">
<g>
	<g>
		<path d="M24.826,0C11.137,0,0,11.137,0,24.826c0,13.688,11.137,24.826,24.826,24.826c13.688,0,24.826-11.138,24.826-24.826
			C49.652,11.137,38.516,0,24.826,0z M35.901,19.144c0.011,0.246,0.017,0.494,0.017,0.742c0,7.551-5.746,16.255-16.259,16.255
			c-3.227,0-6.231-0.943-8.759-2.565c0.447,0.053,0.902,0.08,1.363,0.08c2.678,0,5.141-0.914,7.097-2.446
			c-2.5-0.046-4.611-1.698-5.338-3.969c0.348,0.066,0.707,0.103,1.074,0.103c0.521,0,1.027-0.068,1.506-0.199
			c-2.614-0.524-4.583-2.833-4.583-5.603c0-0.024,0-0.049,0.001-0.072c0.77,0.427,1.651,0.685,2.587,0.714
			c-1.532-1.023-2.541-2.773-2.541-4.755c0-1.048,0.281-2.03,0.773-2.874c2.817,3.458,7.029,5.732,11.777,5.972
			c-0.098-0.419-0.147-0.854-0.147-1.303c0-3.155,2.558-5.714,5.713-5.714c1.644,0,3.127,0.694,4.171,1.804
			c1.303-0.256,2.523-0.73,3.63-1.387c-0.43,1.335-1.333,2.454-2.516,3.162c1.157-0.138,2.261-0.444,3.282-0.899
			C37.987,17.334,37.018,18.341,35.901,19.144z"/>
	</g>
</g>
<g>
</g>
<g>
</g>
<g>
</g>
<g>
</g>
<g>
</g>
<g>
</g>
<g>
</g>
<g>
</g>
<g>
</g>
<g>
</g>
<g>
</g>
<g>
</g>
<g>
</g>
<g>
</g>
<g>
</g>

</symbol></svg>